<?xml version="1.0" encoding="UTF-8"?><svg id="a" xmlns="http://www.w3.org/2000/svg" viewBox="0 0 1276.05 510.36"><defs><style>.b{fill:#f15e43;}.b,.c{stroke-width:0px;}.c{fill:#fff;}</style></defs><polygon class="b" points="1276.05 350.83 30 350.83 0 510.36 1246.05 510.36 1276.05 350.83"/><path class="c" d="M70.16,475.72c-5.16-2.07-9.25-5.1-12.28-9.1-3.03-3.99-4.55-8.72-4.55-14.18,0-.71.1-1.97.3-3.79h17.14c-.41,4.65.96,8.52,4.09,11.6,3.13,3.08,7.63,4.63,13.5,4.63,6.27,0,11.17-1.29,14.71-3.87,3.54-2.58,5.31-6.29,5.31-11.15,0-2.93-.89-5.43-2.65-7.51-1.77-2.07-4-3.82-6.67-5.23-2.68-1.42-6.4-3.08-11.15-5-6.27-2.63-11.27-5-15.01-7.13-3.74-2.12-6.95-5.05-9.63-8.8-2.68-3.74-4.02-8.44-4.02-14.1,0-6.27,1.62-11.75,4.85-16.46,3.23-4.7,7.71-8.31,13.42-10.84,5.71-2.53,12.16-3.79,19.34-3.79s13.37,1.19,18.58,3.56c5.21,2.38,9.15,5.71,11.83,10.01,2.68,4.3,3.87,9.33,3.56,15.09h-18.2c.4-4.14-.86-7.61-3.79-10.39-2.93-2.78-7.18-4.17-12.74-4.17-5.86,0-10.54,1.34-14.03,4.02-3.49,2.68-5.23,6.29-5.23,10.84,0,2.83.88,5.28,2.65,7.36,1.77,2.07,4.02,3.84,6.75,5.31,2.73,1.47,6.42,3.21,11.07,5.23,6.27,2.83,11.3,5.36,15.09,7.58,3.79,2.22,7.05,5.23,9.78,9.02,2.73,3.79,4.09,8.47,4.09,14.03,0,5.86-1.62,11.1-4.85,15.7-3.24,4.6-7.79,8.19-13.65,10.77-5.86,2.58-12.59,3.87-20.17,3.87-6.47,0-12.28-1.04-17.44-3.11Z"/><path class="c" d="M206.34,372.36l-11.83,66.88c-.41,2.02-.61,4.09-.61,6.22,0,5.97,1.74,10.44,5.23,13.42,3.49,2.98,8.47,4.47,14.94,4.47,7.58,0,13.82-2.02,18.73-6.07,4.9-4.04,8.06-10.06,9.48-18.05l11.83-66.88h17.29l-11.83,66.88c-1.52,8.59-4.68,15.87-9.48,21.84-4.8,5.97-10.59,10.41-17.36,13.35-6.77,2.93-13.95,4.4-21.53,4.4-10.31,0-18.68-2.63-25.1-7.89-6.42-5.25-9.63-12.89-9.63-22.9,0-3.34.25-6.27.76-8.8l11.83-66.88h17.29Z"/><path class="c" d="M435.19,372.36l-18.65,105.4h-17.29l12.74-72.19-44.89,72.19h-11.98l-19.56-72.19-12.74,72.19h-17.29l18.65-105.4h18.65l22.44,82.65,51.41-82.65h18.5Z"/><path class="c" d="M599.27,372.36l-18.65,105.4h-17.29l12.74-72.19-44.89,72.19h-11.98l-19.56-72.19-12.74,72.19h-17.29l18.65-105.4h18.65l22.44,82.65,51.41-82.65h18.5Z"/><path class="c" d="M669.64,372.36l-18.65,105.4h-17.29l18.65-105.4h17.29Z"/><path class="c" d="M790.81,372.36l-2.43,13.5h-28.06l-16.23,91.9h-17.29l16.23-91.9h-28.21l2.43-13.5h73.55Z"/><path class="c" d="M70.16,475.72c-5.16-2.07-9.25-5.1-12.28-9.1-3.03-3.99-4.55-8.72-4.55-14.18,0-.71.1-1.97.3-3.79h17.14c-.41,4.65.96,8.52,4.09,11.6,3.13,3.08,7.63,4.63,13.5,4.63,6.27,0,11.17-1.29,14.71-3.87,3.54-2.58,5.31-6.29,5.31-11.15,0-2.93-.89-5.43-2.65-7.51-1.77-2.07-4-3.82-6.67-5.23-2.68-1.42-6.4-3.08-11.15-5-6.27-2.63-11.27-5-15.01-7.13-3.74-2.12-6.95-5.05-9.63-8.8-2.68-3.74-4.02-8.44-4.02-14.1,0-6.27,1.62-11.75,4.85-16.46,3.23-4.7,7.71-8.31,13.42-10.84,5.71-2.53,12.16-3.79,19.34-3.79s13.37,1.19,18.58,3.56c5.21,2.38,9.15,5.71,11.83,10.01,2.68,4.3,3.87,9.33,3.56,15.09h-18.2c.4-4.14-.86-7.61-3.79-10.39-2.93-2.78-7.18-4.17-12.74-4.17-5.86,0-10.54,1.34-14.03,4.02-3.49,2.68-5.23,6.29-5.23,10.84,0,2.83.88,5.28,2.65,7.36,1.77,2.07,4.02,3.84,6.75,5.31,2.73,1.47,6.42,3.21,11.07,5.23,6.27,2.83,11.3,5.36,15.09,7.58,3.79,2.22,7.05,5.23,9.78,9.02,2.73,3.79,4.09,8.47,4.09,14.03,0,5.86-1.62,11.1-4.85,15.7-3.24,4.6-7.79,8.19-13.65,10.77-5.86,2.58-12.59,3.87-20.17,3.87-6.47,0-12.28-1.04-17.44-3.11Z"/><path class="c" d="M206.34,372.36l-11.83,66.88c-.41,2.02-.61,4.09-.61,6.22,0,5.97,1.74,10.44,5.23,13.42,3.49,2.98,8.47,4.47,14.94,4.47,7.58,0,13.82-2.02,18.73-6.07,4.9-4.04,8.06-10.06,9.48-18.05l11.83-66.88h17.29l-11.83,66.88c-1.52,8.59-4.68,15.87-9.48,21.84-4.8,5.97-10.59,10.41-17.36,13.35-6.77,2.93-13.95,4.4-21.53,4.4-10.31,0-18.68-2.63-25.1-7.89-6.42-5.25-9.63-12.89-9.63-22.9,0-3.34.25-6.27.76-8.8l11.83-66.88h17.29Z"/><path class="c" d="M435.19,372.36l-18.65,105.4h-17.29l12.74-72.19-44.89,72.19h-11.98l-19.56-72.19-12.74,72.19h-17.29l18.65-105.4h18.65l22.44,82.65,51.41-82.65h18.5Z"/><path class="c" d="M599.27,372.36l-18.65,105.4h-17.29l12.74-72.19-44.89,72.19h-11.98l-19.56-72.19-12.74,72.19h-17.29l18.65-105.4h18.65l22.44,82.65,51.41-82.65h18.5Z"/><path class="c" d="M669.64,372.36l-18.65,105.4h-17.29l18.65-105.4h17.29Z"/><path class="c" d="M790.81,372.36l-2.43,13.5h-28.06l-16.23,91.9h-17.29l16.23-91.9h-28.21l2.43-13.5h73.55Z"/><path class="c" d="M131.71,1.54h-15.7c-3.02,0-4.83,1.81-5.43,4.83h0l-39.85,318.21c-.6,3.02.6,4.83,3.62,4.83h15.7c2.42.6,4.83-1.21,5.43-4.23v-.6L135.93,6.37c.6-3.02-1.21-4.83-4.23-4.83Z"/><path class="c" d="M212.62,93.32h-15.7c-2.42,0-4.83,1.81-5.43,4.23v.6l-28.38,226.43c-.6,3.02,1.21,4.83,4.23,4.83h15.7c2.42.6,4.83-1.21,5.43-4.23v-.6l28.38-226.43c0-3.02-.6-4.83-4.23-4.83Z"/><path class="c" d="M891.3,89.7c-41.06-1.21-77.29,26.57-87.55,67.02-4.23,18.11-7.25,36.23-9.66,54.95-2.42,18.11-4.23,36.23-4.23,54.95-.6,18.11,6.64,35.62,19.32,48.3,12.68,12.08,29.59,18.11,51.93,18.11,19.93.6,39.85-6.04,55.55-18.11,15.7-12.08,26.57-28.98,31.4-48.3,4.23-18.11,7.85-36.23,9.66-54.95,2.42-18.11,3.62-36.83,4.23-54.95.6-18.11-6.04-35.62-18.72-48.3-15.1-13.28-33.21-19.93-51.93-18.72ZM934.77,189.33c-1.21,11.47-2.42,18.72-2.42,21.74-3.02,23.55-5.43,39.85-7.85,50.12-3.02,14.49-10.87,27.17-22.34,36.23-10.87,9.06-24.76,13.89-39.25,13.28-25.36,1.81-47.1-17.51-48.91-42.87v-5.43c0-9.66.6-19.32,2.42-28.98,1.21-11.47,2.42-18.72,2.42-21.74,3.02-22.34,5.43-39.25,7.85-50.12,3.02-14.49,10.87-27.17,22.34-36.23,10.87-9.06,24.76-13.89,39.25-13.28,25.36-1.81,47.1,17.51,48.91,42.87v5.43c-.6,9.66-1.21,19.32-2.42,28.98Z"/><path class="c" d="M1050.1,93.32h-15.1c-3.02,0-4.83,1.81-5.43,4.83l-29.59,226.43c-.6,3.02,1.21,4.83,4.23,4.83h15.7c2.42,0,4.83-1.81,5.43-4.23h0l28.38-226.43c.6-3.62-.6-5.43-3.62-5.43Z"/><path class="c" d="M1245.13,106.61c-10.87-10.87-25.36-16.91-44.68-16.91-12.08,0-23.55,2.42-35.02,7.25-10.87,4.83-19.93,12.08-27.17,21.74-1.21,1.21-1.81,1.21-1.81-1.21l2.42-19.93c.6-3.02-.6-4.83-3.62-4.83h-15.1c-2.42,0-4.83,1.81-5.43,4.23h0l-28.98,227.64c-.6,3.02.6,4.83,3.62,4.83h15.7c3.02,0,4.83-1.81,5.43-4.83h0l20.53-162.42c3.02-13.89,10.26-26.57,21.13-36.23,10.87-9.06,24.15-13.89,38.04-13.89,12.08-.6,24.15,4.23,32.61,13.28,8.45,9.66,12.68,22.34,12.08,35.02,0,3.62,0,6.64-.6,10.26l-18.72,153.97c0,1.21,0,2.42.6,3.02,1.21,1.21,2.42,1.21,3.62,1.21h15.1c2.42,0,4.83-1.81,5.43-4.23h0l19.93-158.2c.6-6.04,1.21-10.87,1.21-13.89.6-16.91-4.83-33.21-16.3-45.89Z"/><path class="c" d="M222.88,2.15c-9.06-4.83-20.53-1.21-25.96,7.85-4.83,9.06-1.21,20.53,7.85,25.96,9.06,4.83,20.53,1.21,25.96-7.85h0c4.83-9.66,1.21-21.13-7.85-25.96Z"/><path class="c" d="M1060.97,2.15c-9.06-4.83-20.53-1.21-25.96,7.85-4.83,9.06-1.21,20.53,7.85,25.96,9.06,4.83,20.53,1.21,25.96-7.85h0c4.83-9.66,1.21-21.13-7.85-25.96Z"/><path class="c" d="M689.02,89.7c-19.93-.6-39.85,6.04-56.15,18.72-15.7,12.08-26.57,28.98-31.4,48.3-4.23,18.11-7.25,36.23-9.66,54.95-2.42,18.11-3.62,36.23-4.23,54.95-.6,18.11,6.64,35.62,19.32,48.3,12.68,12.08,29.59,18.11,51.93,18.11,19.93.6,39.85-6.04,55.55-18.11,15.7-12.08,26.57-28.98,31.4-48.3.6-1.81.6-3.02,1.21-4.83,0-1.21-.6-2.42-1.81-2.42h-19.32c-1.21,0-2.42.6-3.02,2.42v1.21c-3.02,14.49-10.87,27.17-22.34,36.23-10.87,9.06-24.76,13.89-39.25,13.28-25.36,1.81-47.1-17.51-48.91-42.87v-5.43c0-9.66.6-19.32,2.42-28.98,1.21-9.66,2.42-18.72,2.42-21.74,3.02-22.34,5.43-39.25,7.85-50.12,3.02-14.49,10.87-27.17,21.74-36.23,10.87-9.06,24.76-13.89,39.25-13.28,25.36-1.81,47.1,17.51,48.91,42.87v6.04c0,1.81,1.21,3.62,3.62,3.62h18.11c1.81,0,3.02-1.21,3.02-2.42h0v-5.43c.6-18.11-6.04-35.62-19.32-48.3-13.89-15.1-32-21.74-51.32-20.53Z"/><path class="c" d="M533.24,107.81c-13.89-12.68-32.61-19.32-51.32-18.11-41.06-1.21-77.29,26.57-87.55,67.02-4.23,18.11-7.25,36.23-9.66,54.95-3.02,18.11-4.23,36.23-4.23,54.95-.6,18.11,6.64,35.62,19.32,48.3,12.68,12.08,29.59,18.11,51.93,18.11,19.93.6,39.85-6.04,55.55-18.11,15.7-12.08,26.57-28.98,31.4-48.3.6-1.81.6-3.02,1.21-4.83,0-1.21-.6-2.42-1.81-2.42h-19.93c-1.21,0-2.42.6-3.02,2.42v1.21c-3.02,14.49-10.87,27.17-22.34,36.23-10.87,9.06-24.76,13.28-39.25,13.28-25.36,1.81-47.1-17.51-48.91-42.87v-5.43c0-8.45.6-16.91,1.81-25.36l139.48-43.47c2.42-.6,4.23-3.02,4.23-5.43.6-7.25,1.21-19.32,1.21-32,1.81-19.32-5.43-36.83-18.11-50.12ZM527.8,173.02c0,1.21-1.21,2.42-2.42,3.02l-115.33,35.62v-.6c3.02-22.34,5.43-39.25,7.85-50.12,3.02-14.49,10.87-27.17,22.34-36.23,10.87-9.06,24.76-13.89,39.25-13.28,13.28-.6,25.96,4.23,35.62,13.89,13.89,13.89,13.89,28.98,12.68,47.7Z"/><path class="c" d="M327.94,304.05c1.81-1.21,4.23-.6,4.83,1.21.6.6.6,1.21.6,2.42l-1.81,15.7c0,1.81-1.81,3.62-3.62,4.83-15.7,6.04-32.61,6.64-48.3.6-17.51-7.85-22.34-25.36-19.93-47.1l20.53-166.05,3.02-24.15,6.64-53.14c0-2.42,2.42-4.83,4.83-4.83h15.7c3.62,0,4.23,1.81,3.62,4.83l-9.06,74.87h48.3c3.02,0,4.23,1.81,3.62,4.83l-1.21,10.87c0,1.21-.6,2.42-1.21,3.62-1.21.6-2.42,1.21-3.62,1.21h-48.3l-16.91,135.86c-1.81,14.49-3.62,27.78,3.62,35.02,10.26,8.45,28.98,4.23,38.64-.6Z"/><path class="c" d="M890.84,441.23c8.53-6.55,15.91-13.4,22.16-20.56,6.24-7.16,9.97-14.13,11.19-20.94.3-1.83.46-3.65.46-5.48,0-4.77-1.37-8.53-4.11-11.27-2.74-2.74-7.11-4.11-13.09-4.11-6.8,0-12.49,2.16-17.05,6.47-4.57,4.32-7.67,10.08-9.29,17.28h-13.4c2.44-11.37,7.46-20.15,15.07-26.34,7.61-6.19,16.54-9.29,26.8-9.29,9.14,0,16.27,2.23,21.39,6.7,5.13,4.47,7.69,10.66,7.69,18.58,0,2.44-.2,4.72-.61,6.85-1.42,8.12-5.36,16.14-11.8,24.06-6.45,7.92-13.43,14.87-20.94,20.86-7.51,5.99-16.9,12.99-28.17,21.01h52.38l-1.98,11.57h-73.39l1.83-9.9c14.72-10.45,26.34-18.96,34.87-25.51Z"/><path class="c" d="M974.82,382.08c7.36-9.74,18.14-14.62,32.36-14.62,10.96,0,18.8,2.97,23.53,8.91,4.72,5.94,7.08,14.24,7.08,24.9,0,6.29-.71,13.4-2.13,21.32-3.05,17.36-8.25,30.91-15.61,40.65-7.36,9.75-18.15,14.62-32.36,14.62-10.96,0-18.8-2.97-23.53-8.91-4.72-5.94-7.08-14.29-7.08-25.05,0-6.29.71-13.4,2.13-21.32,3.05-17.26,8.25-30.76,15.61-40.5ZM1024.23,402.63c0-7.21-1.45-12.76-4.34-16.67-2.89-3.91-7.84-5.86-14.85-5.86s-12.49,1.85-16.75,5.56c-4.26,3.71-7.54,8.6-9.82,14.69s-4.19,13.5-5.71,22.23c-1.42,8.32-2.13,15.02-2.13,20.1,0,7.21,1.45,12.77,4.34,16.67,2.89,3.91,7.84,5.86,14.85,5.86s12.49-1.85,16.75-5.56c4.26-3.7,7.51-8.6,9.75-14.69,2.23-6.09,4.16-13.55,5.79-22.38,1.42-8.32,2.13-14.97,2.13-19.95Z"/><path class="c" d="M1086.2,441.23c8.53-6.55,15.91-13.4,22.16-20.56,6.24-7.16,9.97-14.13,11.19-20.94.3-1.83.46-3.65.46-5.48,0-4.77-1.37-8.53-4.11-11.27-2.74-2.74-7.11-4.11-13.09-4.11-6.8,0-12.49,2.16-17.05,6.47-4.57,4.32-7.67,10.08-9.29,17.28h-13.4c2.44-11.37,7.46-20.15,15.07-26.34,7.61-6.19,16.54-9.29,26.8-9.29,9.14,0,16.27,2.23,21.39,6.7,5.12,4.47,7.69,10.66,7.69,18.58,0,2.44-.2,4.72-.61,6.85-1.42,8.12-5.36,16.14-11.8,24.06-6.45,7.92-13.43,14.87-20.94,20.86-7.51,5.99-16.9,12.99-28.17,21.01h52.38l-1.98,11.57h-73.39l1.83-9.9c14.72-10.45,26.34-18.96,34.87-25.51Z"/><path class="c" d="M1232.38,379.79h-53.6l-6.09,34.72c2.94-3.25,6.85-5.91,11.72-7.99,4.87-2.08,9.95-3.12,15.23-3.12,10.45,0,18.04,2.64,22.76,7.92,4.72,5.28,7.08,11.98,7.08,20.1,0,2.54-.25,5.33-.76,8.38-2.03,11.27-6.88,20.48-14.54,27.64-7.67,7.16-17.64,10.73-29.92,10.73-10.66,0-18.8-2.74-24.44-8.22s-8.35-12.79-8.15-21.93h13.4c.3,5.79,2.33,10.3,6.09,13.55,3.75,3.25,8.83,4.87,15.23,4.87,8.02,0,14.52-2.41,19.49-7.23,4.97-4.82,8.17-11.19,9.59-19.11.4-2.03.61-4.21.61-6.55,0-5.89-1.7-10.4-5.1-13.55-3.4-3.14-8.5-4.72-15.3-4.72-5.48,0-10.43,1.3-14.85,3.88-4.42,2.59-7.94,6.12-10.58,10.58h-13.1l10.96-62.12h66.24l-1.98,12.18Z"/></svg>